# xmcd CD Database Entry
#
# Track frame offsets:
# 150
# 28805
# 61190
# 89230
# 123955
# 162637
# 190392
# 216480
#
# Disc length: 3209 seconds
#
# Revision: 1
# Processed by: cddbd v1.4PL0 Copyright (c) Steve Scherf et al.
# Submitted via: tcd 2.0b
#
DISCID=7b0c8708
DTITLE=GERRY MULLIGAN
DYEAR=1900
DGENRE=
TTITLE0=APPLE CORE
TTITLE1=SONG FOR JONNY HODGES
TTITLE2=BLIGHT OF THE FUMBLE BEE
TTITLE3=GERRY MEETS HAMP
TTITLE4=BLUES FOR GERRY
TTITLE5=LINE FOR LYONS
TTITLE6=WALKING SHOES
TTITLE7=LIMELIGHT
EXTD=
EXTT0=
EXTT1=
EXTT2=
EXTT3=
EXTT4=
EXTT5=
EXTT6=
EXTT7=
PLAYORDER=
